<svg width="28" height="40" viewBox="0 0 28 40" fill="none" xmlns="http://www.w3.org/2000/svg">
<path fill-rule="evenodd" clip-rule="evenodd" d="M26.1919 31.7337C25.5426 31.031 22.3371 27.613 21.7093 27.0641C21.0813 26.5154 20.6001 26.1929 19.7974 26.8287C18.9947 27.4644 16.8592 28.7715 16.2142 29.155C15.5692 29.5383 15.0864 29.4381 14.4368 28.7355C13.7875 28.0328 11.5403 26.2299 9.47259 22.3115C7.86453 19.2608 7.1822 15.9726 7.00612 14.9783C6.83003 13.984 7.38341 13.6915 7.91874 13.4174C8.39667 13.1776 9.03041 12.7417 9.58597 12.4022C10.1416 12.0624 10.3897 11.7686 10.8364 11.3124C11.2835 10.8563 11.315 10.3264 11.2572 9.84041C11.1995 9.35442 10.9864 4.70796 10.8848 2.81311C10.7854 0.967153 10.0635 0.94674 9.5906 0.736118C9.14473 0.546093 8.61379 0.346278 8.08733 0.153448C7.27204 -0.120308 6.38398 -0.024622 5.63756 0.417404C4.63818 0.981039 1.93149 2.23376 0.566706 6.30229C-0.798077 10.3708 0.707947 15.3358 0.916113 16.0319C1.12428 16.728 3.49029 26.9683 10.1936 33.4452C11.4389 34.6468 12.7437 35.7786 14.1029 36.8363C15.778 38.1622 17.528 38.6982 18.9578 38.9832C20.5505 39.2995 24.293 38.6914 25.5985 37.0019C26.9041 35.3128 27.4583 33.6562 27.371 33.2378C27.2837 32.8194 26.8391 32.4428 26.1898 31.7401L26.1919 31.7337Z" fill="white"/>
</svg>
