<svg width="55" height="55" viewBox="0 0 55 55" fill="none" xmlns="http://www.w3.org/2000/svg">
<g clip-path="url(#clip0_967_153)">
<mask id="mask0_967_153" style="mask-type:luminance" maskUnits="userSpaceOnUse" x="0" y="0" width="55" height="55">
<path d="M34.7587 0H34.66H29.4386H20.0312C3.53394 0 0 3.53942 0 20.0312V34.7587C0 51.2559 3.53942 54.7898 20.0312 54.7898H29.4386H34.66H34.7587C51.2559 54.7898 54.7898 51.2504 54.7898 34.7587V20.0312C54.7898 3.53394 51.2504 0 34.7587 0Z" fill="white"/>
</mask>
<g mask="url(#mask0_967_153)">
<rect width="54.7898" height="54.7898" fill="#9157FF"/>
</g>
<path fill-rule="evenodd" clip-rule="evenodd" d="M27.8489 48.1229C23.7393 48.1229 21.8295 47.523 18.5098 45.1232C16.41 47.823 9.76062 49.9328 9.47065 46.3231C9.47065 43.6134 8.87071 41.3236 8.19077 38.8238C7.38085 35.7441 6.46094 32.3144 6.46094 27.3449C6.46094 15.476 16.2 6.54688 27.7389 6.54688C39.2878 6.54688 48.337 15.916 48.337 27.4549C48.3757 38.8154 39.2093 48.0623 27.8489 48.1229ZM28.0189 16.8059C22.3994 16.5159 18.0198 20.4056 17.0499 26.505C16.25 31.5545 17.6699 37.7039 18.8798 38.0239C19.4597 38.1639 20.9196 36.984 21.8295 36.0741C23.3341 37.1135 25.0861 37.7377 26.909 37.8839C32.7317 38.164 37.707 33.7312 38.0979 27.9149C38.3255 22.0862 33.8424 17.1495 28.0189 16.8159L28.0189 16.8059Z" fill="#F3EDFF"/>
</g>
<defs>
<clipPath id="clip0_967_153">
<rect width="54.7898" height="54.7898" fill="white"/>
</clipPath>
</defs>
</svg>
