<svg width="765" height="208" viewBox="0 0 765 208" fill="none" xmlns="http://www.w3.org/2000/svg">
<path d="M70.6688 123.791C62.8823 119.387 54.7811 116.713 46.3653 115.769V185.848H31.0282V115.769C22.5338 116.713 14.3933 119.387 6.60677 123.791L1.29776 111.993C6.8034 108.69 12.7023 106.213 18.9945 104.561C25.3653 102.909 31.8934 102.083 38.5788 102.083C45.2642 102.083 51.7923 102.909 58.1631 104.561C64.5339 106.213 70.4722 108.69 75.9778 111.993L70.6688 123.791ZM143.258 142.904C148.527 144.319 152.538 146.758 155.291 150.218C158.044 153.6 159.421 157.848 159.421 162.96C159.421 170.196 156.746 175.82 151.398 179.831C146.05 183.842 138.302 185.848 128.156 185.848H88.9877V103.263H125.915C135.196 103.263 142.432 105.111 147.623 108.808C152.814 112.505 155.409 117.735 155.409 124.499C155.409 128.825 154.347 132.561 152.224 135.707C150.179 138.853 147.19 141.252 143.258 142.904ZM104.089 138.538H124.617C129.572 138.538 133.347 137.555 135.943 135.589C138.538 133.623 139.836 130.713 139.836 126.859C139.836 123.005 138.538 120.095 135.943 118.128C133.347 116.083 129.572 115.061 124.617 115.061H104.089V138.538ZM127.684 174.05C138.538 174.05 143.965 169.96 143.965 161.78C143.965 153.758 138.538 149.746 127.684 149.746H104.089V174.05H127.684ZM215.117 187.027C206.701 187.027 199.111 185.218 192.347 181.6C185.583 177.904 180.274 172.831 176.42 166.381C172.566 159.853 170.639 152.578 170.639 144.555C170.639 136.533 172.566 129.297 176.42 122.847C180.274 116.319 185.583 111.246 192.347 107.628C199.111 103.932 206.701 102.083 215.117 102.083C223.533 102.083 231.123 103.932 237.887 107.628C244.651 111.246 249.96 116.28 253.814 122.729C257.668 129.179 259.595 136.454 259.595 144.555C259.595 152.657 257.668 159.932 253.814 166.381C249.96 172.831 244.651 177.904 237.887 181.6C231.123 185.218 223.533 187.027 215.117 187.027ZM215.117 173.578C220.623 173.578 225.578 172.359 229.982 169.921C234.387 167.404 237.848 163.943 240.364 159.539C242.881 155.055 244.14 150.061 244.14 144.555C244.14 139.05 242.881 134.095 240.364 129.69C237.848 125.207 234.387 121.746 229.982 119.308C225.578 116.791 220.623 115.533 215.117 115.533C209.612 115.533 204.656 116.791 200.252 119.308C195.847 121.746 192.387 125.207 189.87 129.69C187.353 134.095 186.095 139.05 186.095 144.555C186.095 150.061 187.353 155.055 189.87 159.539C192.387 163.943 195.847 167.404 200.252 169.921C204.656 172.359 209.612 173.578 215.117 173.578ZM347.456 103.263V185.848H332.709V175.348C327.125 183.134 318.473 187.027 306.754 187.027C297.001 187.027 289.332 183.999 283.748 177.943C278.164 171.808 275.372 163.157 275.372 151.988V103.263H290.709V151.398C290.709 158.713 292.439 164.258 295.9 168.033C299.439 171.73 304.276 173.578 310.411 173.578C317.018 173.578 322.288 171.612 326.22 167.679C330.153 163.668 332.119 157.73 332.119 149.864V103.263H347.456ZM312.063 97.7181C304.984 97.7181 299.636 96.263 296.018 93.3529C292.478 90.4428 290.669 86.1956 290.591 80.6113H301.327C301.405 83.5214 302.349 85.763 304.158 87.336C305.967 88.9091 308.602 89.6956 312.063 89.6956C315.445 89.6956 318.08 88.9091 319.967 87.336C321.934 85.763 322.956 83.5214 323.035 80.6113H333.653C333.574 86.1169 331.686 90.3642 327.99 93.3529C324.372 96.263 319.063 97.7181 312.063 97.7181Z" fill="#9257FF"/>
<path d="M487.96 172.87V203.426H473.803V185.848H408.679L408.561 203.426H394.403L394.521 172.87H404.549V139.01C404.549 131.145 406.044 124.46 409.033 118.954C412.1 113.449 416.387 109.28 421.892 106.448C427.398 103.538 433.808 102.083 441.123 102.083C448.516 102.083 454.965 103.499 460.471 106.331C465.977 109.162 470.224 113.37 473.213 118.954C476.28 124.46 477.814 131.145 477.814 139.01V172.87H487.96ZM462.477 172.87V137.595C462.477 130.359 460.589 124.892 456.814 121.196C453.038 117.42 447.808 115.533 441.123 115.533C434.437 115.533 429.207 117.42 425.432 121.196C421.735 124.892 419.887 130.359 419.887 137.595V172.87H462.477ZM566.501 177.943C562.804 180.853 558.046 183.095 552.226 184.668C546.405 186.241 540.113 187.027 533.349 187.027C525.405 187.027 518.641 186.005 513.057 183.96C507.551 181.915 503.383 179.084 500.551 175.466C497.72 171.848 496.304 167.679 496.304 162.96C496.304 158.398 497.562 154.426 500.079 151.044C502.596 147.662 505.978 145.185 510.225 143.612C507.001 141.881 504.445 139.482 502.557 136.415C500.748 133.269 499.843 129.769 499.843 125.915C499.843 121.51 501.141 117.538 503.737 113.999C506.411 110.381 510.383 107.51 515.652 105.387C520.922 103.184 527.411 102.083 535.119 102.083C540.31 102.083 545.383 102.634 550.338 103.735C555.293 104.836 559.619 106.331 563.316 108.218L558.95 120.37C552.029 116.752 544.282 114.943 535.709 114.943C528.945 114.943 523.832 116.044 520.372 118.246C516.99 120.37 515.299 123.241 515.299 126.859C515.299 130.398 516.557 133.112 519.074 134.999C521.591 136.808 525.287 137.713 530.164 137.713H551.99V150.454H529.338C523.754 150.454 519.428 151.437 516.36 153.404C513.293 155.291 511.759 158.123 511.759 161.898C511.759 165.673 513.608 168.662 517.304 170.864C521.001 173.067 526.585 174.168 534.057 174.168C539.248 174.168 544.282 173.46 549.158 172.044C554.113 170.628 558.243 168.662 561.546 166.145L566.501 177.943ZM653.247 103.263V185.848H637.91V150.454H595.202V185.848H579.865V103.263H595.202V137.359H637.91V103.263H653.247ZM714.402 128.628C720.537 128.628 725.925 129.769 730.565 132.05C735.284 134.331 738.941 137.673 741.537 142.078C744.211 146.404 745.548 151.595 745.548 157.651C745.548 167.011 742.402 174.325 736.11 179.595C729.896 184.786 721.087 187.381 709.683 187.381C698.357 187.381 689.705 184.786 683.728 179.595C677.829 174.325 674.879 166.696 674.879 156.707V103.263H689.981V134.527C698.396 130.595 706.537 128.628 714.402 128.628ZM710.273 174.876C716.486 174.876 721.323 173.381 724.784 170.393C728.323 167.404 730.093 163.314 730.093 158.123C730.093 152.696 728.245 148.449 724.548 145.381C720.851 142.314 716.132 140.78 710.391 140.78C707.009 140.78 703.548 141.37 700.009 142.55C696.469 143.73 693.127 145.46 689.981 147.741V156.235C689.981 162.213 691.75 166.814 695.29 170.039C698.829 173.263 703.823 174.876 710.273 174.876Z" fill="#9257FF"/>
<path d="M305.796 14.7025C305.796 22.0431 302.431 27.9564 298.659 32.9521C294.989 37.7438 286.221 46.4098 282.857 46.002C281.021 45.7981 279.798 44.1669 279.696 42.4337C279.594 40.5985 282.041 37.7438 284.182 35.195C286.935 31.7286 290.299 27.7525 292.644 27.6505C294.275 27.5486 295.601 28.772 295.907 29.2817C298.149 26.529 301.514 21.8392 301.514 13.8869C301.514 10.6244 299.169 8.68727 296.926 8.68727C291.421 8.68727 277.861 18.7806 268.685 29.7915C259.305 41.1083 251.455 58.1344 251.557 63.6399C251.659 69.9609 257.062 71.5922 260.427 71.6941C268.073 71.898 277.453 66.8004 283.876 62.5184C288.158 59.6637 293.867 55.7895 295.091 55.5856C295.703 55.4836 296.518 56.2993 296.824 57.9305C297.028 59.1539 289.585 63.9457 284.386 67.0043C275.516 72.102 268.073 76.0781 259.407 75.7723C254.208 75.5684 245.848 71.3883 246.867 62.9262C247.683 55.7895 255.533 39.477 265.423 27.6505C275.516 15.4162 289.687 4.5072 296.518 4.5072C303.961 4.5072 305.796 10.0127 305.796 14.7025ZM397.431 55.4836C397.227 58.0325 386.318 65.1692 380.711 68.5336C373.166 73.0195 367.049 74.7527 363.175 75.0586C360.218 75.2625 357.261 72.4078 357.261 68.5336C357.261 67.4121 359.402 62.5184 361.34 58.7461C362.971 55.4836 366.335 52.3231 366.233 50.5899C366.131 49.6723 365.112 49.0606 364.194 48.9587C362.461 48.8567 351.654 54.9739 348.29 57.1149C345.945 59.3578 344.11 61.9067 342.784 63.6399C341.051 65.8828 339.42 67.718 337.89 67.718C336.565 67.718 335.545 66.6985 335.24 65.2711C334.934 63.8438 339.42 60.3774 341.357 58.3383C345.027 54.5661 345.843 51.5075 345.843 50.284C345.843 48.7547 344.517 47.9391 343.192 47.9391C342.58 47.9391 339.624 48.0411 335.444 49.5704C331.06 51.2016 324.637 54.5661 321.782 56.911C317.704 60.2754 315.767 63.1301 312.606 66.0867C310.771 67.718 308.834 70.6746 306.489 70.3688C305.265 70.1648 304.552 68.8395 304.45 67.718C304.348 65.9848 307.203 63.6399 309.344 61.3969C311.994 58.6442 315.359 55.7895 315.257 53.6485C315.155 52.4251 314.237 51.4055 313.014 51.4055C310.567 51.4055 306.795 53.1387 303.226 54.8719C299.25 56.7071 295.07 61.193 293.643 60.7852C292.521 60.4793 291.298 60.0715 291.4 58.95C291.604 57.1149 297.415 53.3426 301.799 50.9977C305.775 48.8567 311.688 47.6333 314.849 47.3274C317.602 47.0215 319.845 50.7938 320.151 52.8329C323.107 50.5899 338.502 43.861 343.192 43.861C347.78 43.861 349.207 46.5118 349.717 48.7547C350.023 49.8762 350.125 50.9977 350.125 51.6094C354.203 50.284 361.951 44.6766 365.418 44.8805C368.578 45.0844 370.617 46.7157 370.719 49.3665C370.821 52.527 367.559 55.2797 365.622 59.1539C363.888 62.7223 361.34 66.8004 361.34 68.3297C361.34 70.0629 361.849 71.1844 363.583 71.1844C366.641 71.1844 372.35 68.9414 379.079 65.2711C386.522 61.193 394.474 53.6485 396.615 54.0563C397.125 54.1582 397.431 54.9739 397.431 55.4836ZM449.816 57.3188C449.816 58.8481 436.359 66.8004 432.077 69.9609C423.92 75.8742 416.07 82.6031 412.909 86.2734C410.361 90.4535 405.467 103.911 397.82 113.189C392.213 120.02 385.994 128.89 381.304 128.686C378.449 128.584 374.983 126.953 374.983 122.773C374.983 116.349 383.955 107.785 391.703 100.547C399.248 93.3081 405.977 86.9871 409.647 83.6226C410.972 80.0543 413.215 75.4664 414.541 70.7766C415.254 68.2277 417.599 64.0477 418.415 60.7852C413.419 63.9457 404.447 66.6985 400.063 66.6985C392.825 66.6985 392.927 64.0477 392.519 60.3774C392.009 55.8914 400.879 48.4489 402.51 48.7547C403.734 48.9587 404.651 49.3665 404.753 50.5899C404.855 52.0172 397.311 55.6875 397.005 60.5813C396.903 61.9067 398.432 62.8242 399.655 62.8242C405.569 62.8242 416.478 58.7461 422.697 53.2407C424.838 50.5899 426.265 48.4489 429.018 45.9001C431.669 43.3512 435.951 40.5985 437.174 40.5985C438.601 40.5985 440.131 42.0259 440.029 43.4532C439.927 44.6766 434.931 48.245 432.892 49.9782C430.343 52.2211 427.591 54.2602 425.552 56.911C424.226 59.052 422.595 62.1106 421.473 65.0672C420.148 68.8395 418.925 72.2039 418.619 74.6508C421.27 72.8156 427.489 68.2277 431.465 65.6789C436.257 62.6203 446.35 55.5856 448.185 55.4836C449.103 55.3817 449.816 56.809 449.816 57.3188ZM405.365 92.7984C402.918 95.0413 397.005 100.241 392.315 105.441C386.504 111.864 378.755 120.326 379.061 122.976C379.163 123.69 380.488 124.404 381.1 124.404C383.445 124.404 390.48 116.859 394.15 111.354C397.82 105.95 403.122 96.9785 405.365 92.7984ZM494.408 23.5724C494.408 33.156 489.106 45.5942 480.95 56.0954C474.017 65.1692 464.536 73.8352 457.909 73.8352C452.709 73.8352 451.078 72.6117 450.772 67.9219C450.466 63.334 456.787 57.5227 461.171 53.4446C467.288 47.7352 469.735 47.4294 472.386 47.5313C474.935 47.6333 478.197 50.7938 478.911 51.2016C481.97 47.9391 490.126 36.0106 490.126 24.49C490.126 9.91071 475.037 10.8283 468.92 10.8283C452.199 10.8283 435.785 14.6005 425.08 17.965C407.952 23.3685 389.091 33.6657 387.969 33.6657C387.459 33.6657 386.746 32.9521 386.746 32.4423C386.848 29.7915 410.195 19.1884 423.041 15.1103C437.518 10.4205 454.238 7.15798 467.9 7.15798C482.174 7.15798 494.408 9.29899 494.408 23.5724ZM474.629 55.8914C474.119 54.3622 473.304 53.2407 471.774 52.629C469.837 51.9153 464.842 54.77 461.987 57.9305C458.521 61.8047 455.36 65.8828 455.054 68.1258C454.85 69.3492 456.787 69.6551 457.909 69.9609C459.336 70.3688 464.536 67.3102 468.716 63.6399C471.57 60.9891 473.61 58.6442 474.629 55.8914ZM560.813 55.8914C561.119 57.3188 552.86 63.5379 546.845 66.9024C542.257 69.4512 537.771 71.898 534.407 72C529.309 72.102 526.964 69.5531 525.741 67.1063C524.925 65.3731 524.517 63.7418 524.517 62.8242C522.682 64.2516 510.55 71.4902 504.025 71.7961C500.457 72 498.418 70.2668 498.519 67.5141C498.621 64.4555 503.413 55.6875 506.166 53.1387C504.331 54.1582 502.088 55.1778 499.539 56.5032C496.277 58.2364 493.32 61.091 491.179 60.9891C490.159 60.8871 489.446 60.0715 489.548 59.1539C489.854 57.0129 497.5 53.0368 501.374 51.4055C504.637 50.1821 509.53 46.6137 511.977 46.3079C513.303 46.104 515.036 47.3274 515.036 48.5508C515.036 50.9977 512.589 52.3231 509.53 55.6875C507.899 57.5227 503.821 63.2321 503.413 65.6789C503.311 66.4945 502.7 67.5141 504.127 67.616C508.715 67.8199 517.789 62.9262 522.275 59.5618C524.721 57.7266 527.576 55.2797 529.411 53.2407C532.062 50.284 534.101 47.0215 535.324 47.1235C537.465 47.2255 538.485 48.245 538.689 50.386C538.791 51.8133 535.121 54.3622 533.285 57.1149C531.654 59.4598 529.615 61.9067 529.513 63.6399C529.411 65.6789 530.941 68.1258 533.999 68.1258C535.426 68.1258 540.32 66.0867 543.583 64.2516C549.496 60.8871 557.856 54.77 558.774 54.2602C560.099 53.5465 560.507 54.668 560.813 55.8914ZM598.023 42.6376C598.125 44.0649 597.207 44.4727 595.78 46.9196C594.557 49.1626 592.212 52.2211 592.11 53.8524C593.129 54.668 594.455 56.7071 594.353 58.1344C594.149 62.4164 592.416 65.8828 592.518 69.5531C592.518 70.8785 593.741 71.5922 593.333 72.8156C592.925 73.9371 591.906 74.7527 590.682 74.8547C588.541 75.0586 587.216 71.898 587.216 70.3688C587.216 68.1258 588.949 63.1301 589.051 60.1735C589.051 59.052 587.93 58.3383 586.808 57.7266C584.769 59.5618 581.915 62.1106 578.652 64.6594C573.962 68.3297 567.947 72.6117 562.442 72.2039C557.242 71.7961 553.776 69.0434 553.877 64.2516C553.979 60.1735 558.261 56.1973 560.81 56.5032C562.136 56.7071 561.83 58.0325 562.136 59.1539C562.645 61.091 558.873 60.7852 558.669 65.2711C558.567 67.3102 561.422 68.0238 563.155 68.1258C567.029 68.4316 572.331 64.4555 575.593 61.8047C578.652 59.3578 580.589 57.7266 582.73 55.4836C582.118 54.1582 581.099 52.8329 581.507 50.9977C582.118 47.1235 589.765 40.5985 595.576 40.1907C596.392 40.0888 598.023 41.4141 598.023 42.6376ZM586.808 52.2211C588.032 51.4055 590.173 48.9587 590.988 48.0411C591.804 47.1235 592.008 46.6137 592.11 46.002C592.212 45.2883 592.008 45.0844 591.498 45.0844C590.988 45.0844 587.216 48.4489 586.808 49.5704C586.4 50.5899 585.891 51.5075 586.808 52.2211Z" fill="black"/>
<mask id="mask0_1262_637" style="mask-type:alpha" maskUnits="userSpaceOnUse" x="145" y="75" width="141" height="132">
<path fill-rule="evenodd" clip-rule="evenodd" d="M215.55 75.2695C254.397 75.2695 285.889 104.725 285.889 141.061C285.889 177.397 254.397 206.853 215.55 206.853C176.703 206.853 145.211 177.397 145.211 141.061C145.211 104.725 176.703 75.2695 215.55 75.2695ZM215.55 92.814C187.062 92.814 163.968 114.415 163.968 141.061C163.968 167.707 187.062 189.308 215.55 189.308C244.038 189.308 267.132 167.707 267.132 141.061C267.132 114.415 244.038 92.814 215.55 92.814Z" fill="#7E7E7E"/>
</mask>
<g mask="url(#mask0_1262_637)">
<path d="M215.547 97.2001V75.2695" stroke="#9157FF" stroke-width="14.0678"/>
<path d="M237.816 117.881L264.617 92.8125" stroke="#9157FF" stroke-width="14.0678"/>
<path d="M181.12 108.856L154.594 84.0449" stroke="#9157FF" stroke-width="14.0678"/>
</g>
</svg>
