<svg width="165" height="33" viewBox="0 0 165 33" fill="none" xmlns="http://www.w3.org/2000/svg">
<path d="M8.5676 30.1426H0L22.7396 11.7184L22.9798 11.9909L8.5676 30.1426Z" fill="#F062C5"/>
<path d="M37.4776 30.1426H46.0452L23.3681 11.9152L31.9478 0L22.6595 5.4504V12.8993L23.0455 12.3633L23.0599 12.4451L37.4776 30.1426Z" fill="#F062C5"/>
<path d="M25.1822 30.1426H34.5505L23.3159 12.3542H22.7415L25.1822 30.1426Z" fill="#F062C5"/>
<path d="M21.0991 30.1426C17.4406 30.1426 15.3894 30.1426 11.7308 30.1426L23.3802 10.6283L21.0991 30.1426Z" fill="#F062C5"/>
<path d="M54.5274 21.5731H61.1999V23.0965H56.4288V24.7971H58.7199C59.7198 24.7971 60.4795 25.0057 60.9992 25.423C61.5267 25.8403 61.7904 26.4426 61.7904 27.2299C61.7904 28.0566 61.4991 28.6982 60.9165 29.1549C60.3339 29.6115 59.5111 29.8398 58.4483 29.8398H54.5274V21.5731ZM58.342 28.4227C58.8301 28.4227 59.2041 28.3282 59.4639 28.1392C59.7237 27.9424 59.8536 27.659 59.8536 27.2889C59.8536 26.5646 59.3497 26.2025 58.342 26.2025H56.4288V28.4227H58.342ZM66.873 21.4313C67.6367 21.4313 68.302 21.5809 68.8688 21.8801C69.4357 22.1793 69.8766 22.6202 70.1915 23.2028C70.5065 23.7854 70.6639 24.49 70.6639 25.3167V29.8398H68.7508V27.8558H64.9716V29.8398H63.0821V25.3167C63.0821 24.49 63.2396 23.7854 63.5545 23.2028C63.8694 22.6202 64.3103 22.1793 64.8772 21.8801C65.444 21.5809 66.1093 21.4313 66.873 21.4313ZM68.7508 26.3206V25.1396C68.7508 24.4546 68.5815 23.9389 68.2429 23.5925C67.9044 23.2382 67.4438 23.0611 66.8612 23.0611C66.2707 23.0611 65.8062 23.2382 65.4677 23.5925C65.137 23.9389 64.9716 24.4546 64.9716 25.1396V26.3206H68.7508ZM76.3704 21.4313C77.1026 21.4313 77.7443 21.577 78.2954 21.8683C78.8544 22.1596 79.2874 22.5887 79.5945 23.1556C79.9015 23.7145 80.055 24.3916 80.055 25.1868V29.8398H78.1301V25.0215C78.1301 24.3759 77.9726 23.8878 77.6577 23.5571C77.3427 23.2264 76.9137 23.0611 76.3704 23.0611C75.8193 23.0611 75.3823 23.2264 75.0595 23.5571C74.7446 23.8878 74.5871 24.3759 74.5871 25.0215V29.8398H71.7174L71.7056 28.281H72.6622V25.1868C72.6622 24.3916 72.8157 23.7145 73.1227 23.1556C73.4298 22.5887 73.8628 22.1596 74.4218 21.8683C74.9808 21.577 75.6303 21.4313 76.3704 21.4313ZM85.5794 21.4313C86.3431 21.4313 87.0084 21.5809 87.5752 21.8801C88.1421 22.1793 88.583 22.6202 88.8979 23.2028C89.2128 23.7854 89.3703 24.49 89.3703 25.3167V29.8398H87.4571V27.8558H83.678V29.8398H81.7885V25.3167C81.7885 24.49 81.9459 23.7854 82.2609 23.2028C82.5758 22.6202 83.0167 22.1793 83.5835 21.8801C84.1504 21.5809 84.8157 21.4313 85.5794 21.4313ZM87.4571 26.3206V25.1396C87.4571 24.4546 87.2879 23.9389 86.9493 23.5925C86.6108 23.2382 86.1502 23.0611 85.5676 23.0611C84.9771 23.0611 84.5126 23.2382 84.174 23.5925C83.8434 23.9389 83.678 24.4546 83.678 25.1396V26.3206H87.4571ZM97.1281 23.1319H93.1954L93.2073 29.8398H91.3059V21.5731H97.1399L97.1281 23.1319ZM101.979 21.4313C102.743 21.4313 103.408 21.5809 103.975 21.8801C104.542 22.1793 104.983 22.6202 105.298 23.2028C105.613 23.7854 105.77 24.49 105.77 25.3167V29.8398H103.857V27.8558H100.078V29.8398H98.1883V25.3167C98.1883 24.49 98.3457 23.7854 98.6607 23.2028C98.9756 22.6202 99.4165 22.1793 99.9833 21.8801C100.55 21.5809 101.215 21.4313 101.979 21.4313ZM103.857 26.3206V25.1396C103.857 24.4546 103.688 23.9389 103.349 23.5925C103.011 23.2382 102.55 23.0611 101.967 23.0611C101.377 23.0611 100.912 23.2382 100.574 23.5925C100.243 23.9389 100.078 24.4546 100.078 25.1396V26.3206H103.857ZM115.288 21.5731V29.8398H113.374V26.4505H109.619V29.8398H107.706V21.5731H109.619V24.8325H113.374V21.5731H115.288ZM126.525 23.1319H122.593L122.605 29.8398H120.703V21.5731H126.537L126.525 23.1319ZM131.14 21.4904C132.298 21.4904 133.199 21.7738 133.845 22.3407C134.498 22.9076 134.825 23.7027 134.825 24.7262C134.825 25.6946 134.53 26.4544 133.939 27.0055C133.357 27.5566 132.538 27.8322 131.483 27.8322C131.136 27.8322 130.798 27.7968 130.467 27.7259C130.144 27.655 129.794 27.537 129.416 27.3716V29.8398H127.527V24.9506C127.527 23.8405 127.834 22.9863 128.448 22.3879C129.07 21.7896 129.967 21.4904 131.14 21.4904ZM131.152 26.3914C131.711 26.3914 132.14 26.2497 132.439 25.9663C132.746 25.6828 132.9 25.2813 132.9 24.7617C132.9 24.2342 132.746 23.8248 132.439 23.5335C132.14 23.2422 131.723 23.0965 131.188 23.0965C130.629 23.0965 130.192 23.2579 129.877 23.5807C129.57 23.9035 129.416 24.3562 129.416 24.9388V25.86C129.652 26.0253 129.92 26.1552 130.219 26.2497C130.526 26.3442 130.837 26.3914 131.152 26.3914ZM143.583 21.5731V27.2535C143.583 28.4975 143.237 29.4501 142.544 30.1115C141.851 30.7807 140.895 31.1153 139.674 31.1153C138.974 31.1153 138.332 31.0169 137.749 30.82C137.167 30.6311 136.671 30.3595 136.261 30.0052L137.005 28.588C137.753 29.1942 138.627 29.4974 139.627 29.4974C140.32 29.4974 140.832 29.3242 141.162 28.9777C141.501 28.6234 141.67 28.0802 141.67 27.348V26.8402C141.119 27.5173 140.34 27.8558 139.332 27.8558C138.285 27.8558 137.478 27.5606 136.911 26.9701C136.352 26.3717 136.072 25.5136 136.072 24.3956V21.5731H137.986V24.2775C137.986 24.9231 138.139 25.4112 138.446 25.7419C138.753 26.0725 139.186 26.2379 139.745 26.2379C140.336 26.2379 140.804 26.0647 141.151 25.7183C141.497 25.3718 141.67 24.8483 141.67 24.1476V21.5731H143.583ZM153.057 21.5731V29.8398H151.155V23.1319H147.423V29.8398H145.522V21.5731H153.057ZM162.641 21.5731V29.8398H160.739V23.1319H157.007V29.8398H155.106V21.5731H162.641Z" fill="#F062C5"/>
</svg>
