<svg width="165" height="38" viewBox="0 0 165 38" fill="none" xmlns="http://www.w3.org/2000/svg">
<rect x="0.587157" y="0.587157" width="163.103" height="36.7358" rx="11.156" fill="white" fill-opacity="0.3" stroke="#D4BCFF" stroke-width="1.17431"/>
<path d="M21.0069 15.4708C19.4678 14.6002 17.8666 14.0717 16.2032 13.8851V27.7363H13.1718V13.8851C11.4929 14.0717 9.88392 14.6002 8.3449 15.4708L7.29557 13.1389C8.38377 12.486 9.54969 11.9963 10.7933 11.6699C12.0525 11.3434 13.3428 11.1802 14.6642 11.1802C15.9856 11.1802 17.2759 11.3434 18.5351 11.6699C19.7943 11.9963 20.968 12.486 22.0562 13.1389L21.0069 15.4708Z" fill="#9257FF"/>
<path d="M35.621 19.2484C36.6626 19.5282 37.4554 20.0101 37.9995 20.6941C38.5436 21.3626 38.8156 22.2021 38.8156 23.2125C38.8156 24.6427 38.2871 25.7543 37.23 26.5471C36.1729 27.3399 34.6416 27.7363 32.6362 27.7363H24.8945V11.4133H32.1932C34.0276 11.4133 35.4578 11.7787 36.4838 12.5093C37.5098 13.24 38.0228 14.2738 38.0228 15.6107C38.0228 16.4657 37.8129 17.2041 37.3932 17.8259C36.989 18.4478 36.3983 18.9219 35.621 19.2484ZM27.8792 18.3856H31.9367C32.9161 18.3856 33.6622 18.1913 34.1753 17.8026C34.6883 17.414 34.9448 16.8388 34.9448 16.0771C34.9448 15.3153 34.6883 14.7401 34.1753 14.3515C33.6622 13.9473 32.9161 13.7452 31.9367 13.7452H27.8792V18.3856ZM32.543 25.4045C34.6883 25.4045 35.7609 24.5961 35.7609 22.9793C35.7609 21.3937 34.6883 20.6009 32.543 20.6009H27.8792V25.4045H32.543Z" fill="#9257FF"/>
<path d="M50.7779 27.9695C49.1145 27.9695 47.6144 27.612 46.2774 26.8969C44.9405 26.1662 43.8912 25.1635 43.1294 23.8888C42.3677 22.5985 41.9868 21.1605 41.9868 19.5748C41.9868 17.9892 42.3677 16.559 43.1294 15.2842C43.8912 13.9939 44.9405 12.9912 46.2774 12.2761C47.6144 11.5455 49.1145 11.1802 50.7779 11.1802C52.4413 11.1802 53.9415 11.5455 55.2784 12.2761C56.6153 12.9912 57.6647 13.9862 58.4264 15.2609C59.1881 16.5357 59.569 17.9736 59.569 19.5748C59.569 21.176 59.1881 22.614 58.4264 23.8888C57.6647 25.1635 56.6153 26.1662 55.2784 26.8969C53.9415 27.612 52.4413 27.9695 50.7779 27.9695ZM50.7779 25.3112C51.8661 25.3112 52.8455 25.0702 53.7161 24.5883C54.5866 24.0909 55.2706 23.4069 55.7681 22.5363C56.2656 21.6502 56.5143 20.663 56.5143 19.5748C56.5143 18.4866 56.2656 17.5073 55.7681 16.6367C55.2706 15.7506 54.5866 15.0666 53.7161 14.5847C52.8455 14.0872 51.8661 13.8385 50.7779 13.8385C49.6897 13.8385 48.7103 14.0872 47.8398 14.5847C46.9692 15.0666 46.2852 15.7506 45.7878 16.6367C45.2903 17.5073 45.0416 18.4866 45.0416 19.5748C45.0416 20.663 45.2903 21.6502 45.7878 22.5363C46.2852 23.4069 46.9692 24.0909 47.8398 24.5883C48.7103 25.0702 49.6897 25.3112 50.7779 25.3112Z" fill="#9257FF"/>
<path d="M79.4794 11.4133V27.7363H76.5645V25.661C75.4608 27.2 73.7508 27.9695 71.4345 27.9695C69.5068 27.9695 67.9911 27.371 66.8873 26.174C65.7836 24.9614 65.2317 23.2514 65.2317 21.0439V11.4133H68.2631V20.9273C68.2631 22.3731 68.6051 23.469 69.2891 24.2152C69.9887 24.9459 70.9448 25.3112 72.1573 25.3112C73.4632 25.3112 74.5047 24.9226 75.282 24.1453C76.0593 23.3524 76.4479 22.1787 76.4479 20.6242V11.4133H79.4794ZM72.4838 10.3174C71.0847 10.3174 70.0276 10.0298 69.3125 9.45459C68.6129 8.8794 68.2554 8.03993 68.2398 6.93619H70.3618C70.3773 7.51138 70.5639 7.95443 70.9214 8.26534C71.279 8.57626 71.7998 8.73171 72.4838 8.73171C73.1523 8.73171 73.673 8.57626 74.0461 8.26534C74.4348 7.95443 74.6369 7.51138 74.6524 6.93619H76.7511C76.7355 8.02439 76.3624 8.86385 75.6318 9.45459C74.9167 10.0298 73.8674 10.3174 72.4838 10.3174Z" fill="#9257FF"/>
<path d="M106.067 24.1303V30.1698H103.268V26.6953H90.3966L90.3733 30.1698H87.575L87.5984 24.1303H89.5804V17.4379C89.5804 15.8833 89.8758 14.5619 90.4665 13.4737C91.0728 12.3855 91.9201 11.5616 93.0083 11.0019C94.0965 10.4267 95.3634 10.1391 96.8092 10.1391C98.2705 10.1391 99.5452 10.419 100.633 10.9786C101.722 11.5383 102.561 12.37 103.152 13.4737C103.758 14.5619 104.061 15.8833 104.061 17.4379V24.1303H106.067ZM101.03 24.1303V17.158C101.03 15.7278 100.657 14.6474 99.9105 13.9168C99.1643 13.1706 98.1306 12.7975 96.8092 12.7975C95.4878 12.7975 94.454 13.1706 93.7078 13.9168C92.9772 14.6474 92.6118 15.7278 92.6118 17.158V24.1303H101.03ZM121.59 25.133C120.86 25.7082 119.919 26.1512 118.769 26.4621C117.618 26.773 116.375 26.9285 115.038 26.9285C113.468 26.9285 112.131 26.7264 111.027 26.3222C109.939 25.918 109.115 25.3584 108.555 24.6433C107.996 23.9282 107.716 23.1043 107.716 22.1715C107.716 21.2699 107.965 20.4848 108.462 19.8163C108.96 19.1479 109.628 18.6582 110.467 18.3473C109.83 18.0053 109.325 17.5311 108.952 16.9248C108.594 16.303 108.415 15.6112 108.415 14.8495C108.415 13.9789 108.672 13.1939 109.185 12.4943C109.713 11.7792 110.499 11.2118 111.54 10.7921C112.582 10.3568 113.864 10.1391 115.388 10.1391C116.414 10.1391 117.416 10.248 118.396 10.4656C119.375 10.6832 120.23 10.9786 120.961 11.3517L120.098 13.7535C118.73 13.0384 117.199 12.6809 115.504 12.6809C114.167 12.6809 113.157 12.8985 112.473 13.3338C111.804 13.7535 111.47 14.3209 111.47 15.036C111.47 15.7356 111.719 16.2719 112.216 16.645C112.714 17.0026 113.444 17.1813 114.408 17.1813H118.722V19.6997H114.245C113.141 19.6997 112.286 19.8941 111.68 20.2827C111.074 20.6558 110.771 21.2155 110.771 21.9616C110.771 22.7078 111.136 23.2986 111.867 23.7339C112.597 24.1691 113.701 24.3868 115.178 24.3868C116.204 24.3868 117.199 24.2469 118.163 23.967C119.142 23.6872 119.958 23.2986 120.611 22.8011L121.59 25.133ZM138.736 10.3723V26.6953H135.705V19.6997H127.263V26.6953H124.232V10.3723H127.263V17.1114H135.705V10.3723H138.736ZM150.823 15.3858C152.036 15.3858 153.101 15.6112 154.018 16.0621C154.951 16.5129 155.674 17.1736 156.187 18.0441C156.715 18.8991 156.979 19.9252 156.979 21.1222C156.979 22.9721 156.358 24.4179 155.114 25.4594C153.886 26.4854 152.145 26.9985 149.891 26.9985C147.652 26.9985 145.942 26.4854 144.76 25.4594C143.595 24.4179 143.012 22.9099 143.012 20.9356V10.3723H145.996V16.5517C147.66 15.7745 149.269 15.3858 150.823 15.3858ZM150.007 24.5267C151.235 24.5267 152.191 24.2313 152.875 23.6406C153.575 23.0498 153.925 22.2415 153.925 21.2155C153.925 20.1428 153.559 19.3033 152.829 18.6971C152.098 18.0908 151.165 17.7876 150.03 17.7876C149.362 17.7876 148.678 17.9042 147.978 18.1374C147.279 18.3706 146.618 18.7126 145.996 19.1634V20.8424C145.996 22.0238 146.346 22.9333 147.046 23.5706C147.745 24.208 148.732 24.5267 150.007 24.5267Z" fill="#9257FF"/>
<mask id="mask0_1262_675" style="mask-type:alpha" maskUnits="userSpaceOnUse" x="36" y="6" width="29" height="28">
<path fill-rule="evenodd" clip-rule="evenodd" d="M50.8628 6.61328C58.5622 6.61328 64.8038 12.6892 64.8038 20.1842C64.8038 27.6792 58.5622 33.7552 50.8628 33.7552C43.1635 33.7552 36.9219 27.6792 36.9219 20.1842C36.9219 12.6892 43.1635 6.61328 50.8628 6.61328ZM50.8628 10.2322C45.2166 10.2322 40.6395 14.6879 40.6395 20.1842C40.6395 25.6806 45.2166 30.1362 50.8628 30.1362C56.5091 30.1362 61.0862 25.6806 61.0862 20.1842C61.0862 14.6879 56.5091 10.2322 50.8628 10.2322Z" fill="#7E7E7E"/>
</mask>
<g mask="url(#mask0_1262_675)">
<path d="M50.8594 11.1369V6.61328" stroke="#9157FF" stroke-width="2.91482"/>
<path d="M55.5084 15.4053L60.8203 10.2344" stroke="#9157FF" stroke-width="2.91482"/>
<path d="M44.0309 13.5398L38.7734 8.42188" stroke="#9157FF" stroke-width="2.91482"/>
</g>
</svg>
